<mxfile host="65bd71144e" scale="4" border="0">
    <diagram id="33x5W_JDHDyt6haEGtGZ" name="Page-1">
        <mxGraphModel dx="2225" dy="2323" grid="1" gridSize="10" guides="1" tooltips="1" connect="1" arrows="1" fold="1" page="1" pageScale="1" pageWidth="1169" pageHeight="827" math="0" shadow="0">
            <root>
                <mxCell id="0"/>
                <mxCell id="1" parent="0"/>
                <mxCell id="18" style="edgeStyle=none;html=1;endArrow=none;endFill=0;sketch=1;curveFitting=1;jiggle=2;" parent="1" source="3" target="10" edge="1">
                    <mxGeometry relative="1" as="geometry"/>
                </mxCell>
                <mxCell id="25" style="edgeStyle=none;html=1;sketch=1;curveFitting=1;jiggle=2;endArrow=none;endFill=0;" parent="1" source="3" target="5" edge="1">
                    <mxGeometry relative="1" as="geometry"/>
                </mxCell>
                <mxCell id="3" value="" style="fontColor=#0066CC;verticalAlign=top;verticalLabelPosition=bottom;labelPosition=center;align=center;html=1;outlineConnect=0;fillColor=none;strokeColor=#333333;gradientColor=none;gradientDirection=north;strokeWidth=2;shape=mxgraph.networks.user_male;sketch=1;curveFitting=1;jiggle=2;aspect=fixed;" parent="1" vertex="1">
                    <mxGeometry x="560" y="170" width="40" height="100" as="geometry"/>
                </mxCell>
                <mxCell id="5" value="" style="fontColor=#0066CC;verticalAlign=top;verticalLabelPosition=bottom;labelPosition=center;align=center;html=1;outlineConnect=0;fillColor=none;strokeColor=#333333;gradientColor=none;gradientDirection=north;strokeWidth=2;shape=mxgraph.networks.user_female;sketch=1;curveFitting=1;jiggle=2;aspect=fixed;" parent="1" vertex="1">
                    <mxGeometry x="560" y="410" width="40" height="100" as="geometry"/>
                </mxCell>
                <mxCell id="17" style="edgeStyle=none;html=1;endArrow=none;endFill=0;sketch=1;curveFitting=1;jiggle=2;" parent="1" source="6" target="8" edge="1">
                    <mxGeometry relative="1" as="geometry"/>
                </mxCell>
                <mxCell id="24" style="edgeStyle=none;html=1;endArrow=none;endFill=0;sketch=1;curveFitting=1;jiggle=2;" parent="1" source="6" target="5" edge="1">
                    <mxGeometry relative="1" as="geometry"/>
                </mxCell>
                <mxCell id="6" value="" style="fontColor=#0066CC;verticalAlign=top;verticalLabelPosition=bottom;labelPosition=center;align=center;html=1;outlineConnect=0;fillColor=none;strokeColor=#333333;gradientColor=none;gradientDirection=north;strokeWidth=2;shape=mxgraph.networks.user_female;sketch=1;curveFitting=1;jiggle=2;aspect=fixed;" parent="1" vertex="1">
                    <mxGeometry x="320" y="410" width="40" height="100" as="geometry"/>
                </mxCell>
                <mxCell id="8" value="" style="fontColor=#0066CC;verticalAlign=top;verticalLabelPosition=bottom;labelPosition=center;align=center;html=1;outlineConnect=0;fillColor=none;strokeColor=#333333;gradientColor=none;gradientDirection=north;strokeWidth=2;shape=mxgraph.networks.user_female;sketch=1;curveFitting=1;jiggle=2;aspect=fixed;" parent="1" vertex="1">
                    <mxGeometry x="320" y="170" width="40" height="100" as="geometry"/>
                </mxCell>
                <mxCell id="10" value="" style="fontColor=#0066CC;verticalAlign=top;verticalLabelPosition=bottom;labelPosition=center;align=center;html=1;outlineConnect=0;fillColor=none;strokeColor=#333333;gradientColor=none;gradientDirection=north;strokeWidth=2;shape=mxgraph.networks.user_male;sketch=1;curveFitting=1;jiggle=2;aspect=fixed;" parent="1" vertex="1">
                    <mxGeometry x="750" y="280" width="40" height="100" as="geometry"/>
                </mxCell>
                <mxCell id="20" style="edgeStyle=none;html=1;endArrow=none;endFill=0;sketch=1;curveFitting=1;jiggle=2;" parent="1" source="3" target="8" edge="1">
                    <mxGeometry relative="1" as="geometry"/>
                </mxCell>
                <mxCell id="15" style="edgeStyle=none;html=1;endArrow=none;endFill=0;sketch=1;curveFitting=1;jiggle=2;" parent="1" source="12" target="8" edge="1">
                    <mxGeometry relative="1" as="geometry">
                        <mxPoint x="650" y="52.85714285714289" as="targetPoint"/>
                    </mxGeometry>
                </mxCell>
                <mxCell id="12" value="" style="fontColor=#0066CC;verticalAlign=top;verticalLabelPosition=bottom;labelPosition=center;align=center;html=1;outlineConnect=0;fillColor=none;strokeColor=#333333;gradientColor=none;gradientDirection=north;strokeWidth=2;shape=mxgraph.networks.user_male;sketch=1;curveFitting=1;jiggle=2;aspect=fixed;" parent="1" vertex="1">
                    <mxGeometry x="140" y="294" width="40" height="100" as="geometry"/>
                </mxCell>
                <mxCell id="14" value="" style="endArrow=none;html=1;sketch=1;curveFitting=1;jiggle=2;" parent="1" source="6" target="12" edge="1">
                    <mxGeometry width="50" height="50" relative="1" as="geometry">
                        <mxPoint x="190" y="290" as="sourcePoint"/>
                        <mxPoint x="240" y="240" as="targetPoint"/>
                    </mxGeometry>
                </mxCell>
                <mxCell id="27" style="edgeStyle=none;html=1;endArrow=none;endFill=0;sketch=1;curveFitting=1;jiggle=2;" parent="1" source="29" target="35" edge="1">
                    <mxGeometry relative="1" as="geometry"/>
                </mxCell>
                <mxCell id="28" style="edgeStyle=none;html=1;sketch=1;curveFitting=1;jiggle=2;endArrow=none;endFill=0;" parent="1" source="29" target="30" edge="1">
                    <mxGeometry relative="1" as="geometry"/>
                </mxCell>
                <mxCell id="29" value="" style="fontColor=#0066CC;verticalAlign=top;verticalLabelPosition=bottom;labelPosition=center;align=center;html=1;outlineConnect=0;fillColor=none;strokeColor=#333333;gradientColor=none;gradientDirection=north;strokeWidth=2;shape=mxgraph.networks.user_male;sketch=1;curveFitting=1;jiggle=2;aspect=fixed;" parent="1" vertex="1">
                    <mxGeometry x="560" y="550" width="40" height="100" as="geometry"/>
                </mxCell>
                <mxCell id="30" value="" style="fontColor=#0066CC;verticalAlign=top;verticalLabelPosition=bottom;labelPosition=center;align=center;html=1;outlineConnect=0;fillColor=none;strokeColor=#333333;gradientColor=none;gradientDirection=north;strokeWidth=2;shape=mxgraph.networks.user_female;sketch=1;curveFitting=1;jiggle=2;aspect=fixed;" parent="1" vertex="1">
                    <mxGeometry x="560" y="790" width="40" height="100" as="geometry"/>
                </mxCell>
                <mxCell id="31" style="edgeStyle=none;html=1;endArrow=none;endFill=0;sketch=1;curveFitting=1;jiggle=2;" parent="1" source="33" target="34" edge="1">
                    <mxGeometry relative="1" as="geometry"/>
                </mxCell>
                <mxCell id="32" style="edgeStyle=none;html=1;endArrow=none;endFill=0;sketch=1;curveFitting=1;jiggle=2;" parent="1" source="33" target="30" edge="1">
                    <mxGeometry relative="1" as="geometry"/>
                </mxCell>
                <mxCell id="33" value="" style="fontColor=#0066CC;verticalAlign=top;verticalLabelPosition=bottom;labelPosition=center;align=center;html=1;outlineConnect=0;fillColor=none;strokeColor=#333333;gradientColor=none;gradientDirection=north;strokeWidth=2;shape=mxgraph.networks.user_female;sketch=1;curveFitting=1;jiggle=2;aspect=fixed;" parent="1" vertex="1">
                    <mxGeometry x="320" y="790" width="40" height="100" as="geometry"/>
                </mxCell>
                <mxCell id="34" value="" style="fontColor=#0066CC;verticalAlign=top;verticalLabelPosition=bottom;labelPosition=center;align=center;html=1;outlineConnect=0;fillColor=none;strokeColor=#333333;gradientColor=none;gradientDirection=north;strokeWidth=2;shape=mxgraph.networks.user_female;sketch=1;curveFitting=1;jiggle=2;aspect=fixed;" parent="1" vertex="1">
                    <mxGeometry x="320" y="550" width="40" height="100" as="geometry"/>
                </mxCell>
                <mxCell id="35" value="" style="fontColor=#0066CC;verticalAlign=top;verticalLabelPosition=bottom;labelPosition=center;align=center;html=1;outlineConnect=0;fillColor=none;strokeColor=#333333;gradientColor=none;gradientDirection=north;strokeWidth=2;shape=mxgraph.networks.user_male;sketch=1;curveFitting=1;jiggle=2;aspect=fixed;" parent="1" vertex="1">
                    <mxGeometry x="750" y="660" width="40" height="100" as="geometry"/>
                </mxCell>
                <mxCell id="36" style="edgeStyle=none;html=1;endArrow=none;endFill=0;sketch=1;curveFitting=1;jiggle=2;" parent="1" source="29" target="34" edge="1">
                    <mxGeometry relative="1" as="geometry"/>
                </mxCell>
                <mxCell id="37" style="edgeStyle=none;html=1;endArrow=none;endFill=0;sketch=1;curveFitting=1;jiggle=2;" parent="1" source="38" target="34" edge="1">
                    <mxGeometry relative="1" as="geometry">
                        <mxPoint x="650" y="432.8571428571429" as="targetPoint"/>
                    </mxGeometry>
                </mxCell>
                <mxCell id="38" value="" style="fontColor=#0066CC;verticalAlign=top;verticalLabelPosition=bottom;labelPosition=center;align=center;html=1;outlineConnect=0;fillColor=none;strokeColor=#333333;gradientColor=none;gradientDirection=north;strokeWidth=2;shape=mxgraph.networks.user_male;sketch=1;curveFitting=1;jiggle=2;aspect=fixed;" parent="1" vertex="1">
                    <mxGeometry x="140" y="674" width="40" height="100" as="geometry"/>
                </mxCell>
                <mxCell id="39" value="" style="endArrow=none;html=1;sketch=1;curveFitting=1;jiggle=2;" parent="1" source="33" target="38" edge="1">
                    <mxGeometry width="50" height="50" relative="1" as="geometry">
                        <mxPoint x="190" y="670" as="sourcePoint"/>
                        <mxPoint x="240" y="620" as="targetPoint"/>
                    </mxGeometry>
                </mxCell>
                <mxCell id="40" style="edgeStyle=none;html=1;endArrow=none;endFill=0;sketch=1;curveFitting=1;jiggle=2;" parent="1" source="42" target="48" edge="1">
                    <mxGeometry relative="1" as="geometry"/>
                </mxCell>
                <mxCell id="41" style="edgeStyle=none;html=1;sketch=1;curveFitting=1;jiggle=2;endArrow=none;endFill=0;" parent="1" source="42" target="43" edge="1">
                    <mxGeometry relative="1" as="geometry"/>
                </mxCell>
                <mxCell id="42" value="" style="fontColor=#0066CC;verticalAlign=top;verticalLabelPosition=bottom;labelPosition=center;align=center;html=1;outlineConnect=0;fillColor=none;strokeColor=#333333;gradientColor=none;gradientDirection=north;strokeWidth=2;shape=mxgraph.networks.user_male;sketch=1;curveFitting=1;jiggle=2;aspect=fixed;" parent="1" vertex="1">
                    <mxGeometry x="560" y="-210" width="40" height="100" as="geometry"/>
                </mxCell>
                <mxCell id="43" value="" style="fontColor=#0066CC;verticalAlign=top;verticalLabelPosition=bottom;labelPosition=center;align=center;html=1;outlineConnect=0;fillColor=none;strokeColor=#333333;gradientColor=none;gradientDirection=north;strokeWidth=2;shape=mxgraph.networks.user_female;sketch=1;curveFitting=1;jiggle=2;aspect=fixed;" parent="1" vertex="1">
                    <mxGeometry x="560" y="30" width="40" height="100" as="geometry"/>
                </mxCell>
                <mxCell id="44" style="edgeStyle=none;html=1;endArrow=none;endFill=0;sketch=1;curveFitting=1;jiggle=2;" parent="1" source="46" target="47" edge="1">
                    <mxGeometry relative="1" as="geometry"/>
                </mxCell>
                <mxCell id="45" style="edgeStyle=none;html=1;endArrow=none;endFill=0;sketch=1;curveFitting=1;jiggle=2;" parent="1" source="46" target="43" edge="1">
                    <mxGeometry relative="1" as="geometry"/>
                </mxCell>
                <mxCell id="46" value="" style="fontColor=#0066CC;verticalAlign=top;verticalLabelPosition=bottom;labelPosition=center;align=center;html=1;outlineConnect=0;fillColor=none;strokeColor=#333333;gradientColor=none;gradientDirection=north;strokeWidth=2;shape=mxgraph.networks.user_female;sketch=1;curveFitting=1;jiggle=2;aspect=fixed;" parent="1" vertex="1">
                    <mxGeometry x="320" y="30" width="40" height="100" as="geometry"/>
                </mxCell>
                <mxCell id="47" value="" style="fontColor=#0066CC;verticalAlign=top;verticalLabelPosition=bottom;labelPosition=center;align=center;html=1;outlineConnect=0;fillColor=none;strokeColor=#333333;gradientColor=none;gradientDirection=north;strokeWidth=2;shape=mxgraph.networks.user_female;sketch=1;curveFitting=1;jiggle=2;aspect=fixed;" parent="1" vertex="1">
                    <mxGeometry x="320" y="-210" width="40" height="100" as="geometry"/>
                </mxCell>
                <mxCell id="48" value="" style="fontColor=#0066CC;verticalAlign=top;verticalLabelPosition=bottom;labelPosition=center;align=center;html=1;outlineConnect=0;fillColor=none;strokeColor=#333333;gradientColor=none;gradientDirection=north;strokeWidth=2;shape=mxgraph.networks.user_male;sketch=1;curveFitting=1;jiggle=2;aspect=fixed;" parent="1" vertex="1">
                    <mxGeometry x="750" y="-100" width="40" height="100" as="geometry"/>
                </mxCell>
                <mxCell id="49" style="edgeStyle=none;html=1;endArrow=none;endFill=0;sketch=1;curveFitting=1;jiggle=2;" parent="1" source="42" target="47" edge="1">
                    <mxGeometry relative="1" as="geometry"/>
                </mxCell>
                <mxCell id="50" style="edgeStyle=none;html=1;endArrow=none;endFill=0;sketch=1;curveFitting=1;jiggle=2;" parent="1" source="51" target="47" edge="1">
                    <mxGeometry relative="1" as="geometry">
                        <mxPoint x="650" y="-327.1428571428571" as="targetPoint"/>
                    </mxGeometry>
                </mxCell>
                <mxCell id="51" value="" style="fontColor=#0066CC;verticalAlign=top;verticalLabelPosition=bottom;labelPosition=center;align=center;html=1;outlineConnect=0;fillColor=none;strokeColor=#333333;gradientColor=none;gradientDirection=north;strokeWidth=2;shape=mxgraph.networks.user_male;sketch=1;curveFitting=1;jiggle=2;aspect=fixed;" parent="1" vertex="1">
                    <mxGeometry x="140" y="-86" width="40" height="100" as="geometry"/>
                </mxCell>
                <mxCell id="52" value="" style="endArrow=none;html=1;sketch=1;curveFitting=1;jiggle=2;" parent="1" source="46" target="51" edge="1">
                    <mxGeometry width="50" height="50" relative="1" as="geometry">
                        <mxPoint x="190" y="-90" as="sourcePoint"/>
                        <mxPoint x="240" y="-140" as="targetPoint"/>
                    </mxGeometry>
                </mxCell>
                <mxCell id="91" value="" style="ellipse;whiteSpace=wrap;html=1;sketch=1;curveFitting=1;jiggle=2;fillStyle=hachure;fillColor=#FF8000;dashed=1;rotation=-40;strokeColor=#FF8000;" parent="1" vertex="1">
                    <mxGeometry x="50" y="-170" width="400" height="144.33" as="geometry"/>
                </mxCell>
                <mxCell id="95" value="" style="ellipse;whiteSpace=wrap;html=1;sketch=1;curveFitting=1;jiggle=2;fillStyle=hachure;fillColor=#FF8000;dashed=1;rotation=-90;strokeColor=#FF8000;" parent="1" vertex="1">
                    <mxGeometry x="380" y="269.17" width="400" height="144.33" as="geometry"/>
                </mxCell>
                <mxCell id="96" value="" style="ellipse;whiteSpace=wrap;html=1;sketch=1;curveFitting=1;jiggle=2;fillStyle=hachure;fillColor=#FF8000;dashed=1;rotation=-40;strokeColor=#FF8000;" parent="1" vertex="1">
                    <mxGeometry x="50" y="220" width="400" height="144.33" as="geometry"/>
                </mxCell>
                <mxCell id="99" value="" style="ellipse;whiteSpace=wrap;html=1;sketch=1;curveFitting=1;jiggle=2;fillStyle=hachure;fillColor=#FF8000;dashed=1;rotation=35;strokeColor=#FF8000;" parent="1" vertex="1">
                    <mxGeometry x="470" y="580" width="400" height="144.33" as="geometry"/>
                </mxCell>
                <mxCell id="100" value="&lt;font style=&quot;font-size: 30px;&quot; face=&quot;Comic Sans MS&quot;&gt;maxi&lt;font style=&quot;color: rgb(255, 128, 0);&quot;&gt;mal&lt;/font&gt;&lt;/font&gt;&lt;div&gt;&lt;font style=&quot;font-size: 30px;&quot; face=&quot;Comic Sans MS&quot;&gt;&amp;amp;&lt;/font&gt;&lt;/div&gt;&lt;div&gt;&lt;span style=&quot;color: rgb(63, 63, 63); font-family: &amp;quot;Comic Sans MS&amp;quot;; font-size: 30px;&quot;&gt;&amp;nbsp;maxi&lt;/span&gt;&lt;font style=&quot;font-family: &amp;quot;Comic Sans MS&amp;quot;; font-size: 30px; color: rgb(255, 128, 0);&quot;&gt;mum&lt;/font&gt;&lt;span style=&quot;color: rgb(63, 63, 63); font-family: &amp;quot;Comic Sans MS&amp;quot;; font-size: 30px;&quot;&gt;&amp;nbsp;&lt;/span&gt;&lt;/div&gt;" style="text;html=1;align=center;verticalAlign=middle;resizable=0;points=[];autosize=1;strokeColor=none;fillColor=none;" parent="1" vertex="1">
                    <mxGeometry x="705" y="819.9999999999999" width="170" height="120" as="geometry"/>
                </mxCell>
                <mxCell id="105" value="&lt;font style=&quot;font-size: 30px;&quot; face=&quot;Comic Sans MS&quot;&gt;maxi&lt;font style=&quot;color: rgb(255, 128, 0);&quot;&gt;mal&lt;/font&gt;&lt;/font&gt;" style="text;html=1;align=center;verticalAlign=middle;resizable=0;points=[];autosize=1;strokeColor=none;fillColor=none;" parent="1" vertex="1">
                    <mxGeometry x="720" y="460" width="140" height="50" as="geometry"/>
                </mxCell>
                <mxCell id="110" value="" style="ellipse;whiteSpace=wrap;html=1;sketch=1;curveFitting=1;jiggle=2;fillStyle=hachure;fillColor=#FF8000;dashed=1;rotation=-40;strokeColor=#FF8000;" parent="1" vertex="1">
                    <mxGeometry x="40" y="600" width="400" height="144.33" as="geometry"/>
                </mxCell>
                <mxCell id="111" value="" style="ellipse;whiteSpace=wrap;html=1;sketch=1;curveFitting=1;jiggle=2;fillStyle=hachure;fillColor=#FF8000;dashed=1;rotation=0;strokeColor=#FF8000;" parent="1" vertex="1">
                    <mxGeometry x="260" y="767.84" width="400" height="144.33" as="geometry"/>
                </mxCell>
                <mxCell id="113" value="&lt;font style=&quot;font-size: 30px;&quot; face=&quot;Comic Sans MS&quot;&gt;matching&lt;/font&gt;" style="text;html=1;align=center;verticalAlign=middle;resizable=0;points=[];autosize=1;strokeColor=none;fillColor=none;" parent="1" vertex="1">
                    <mxGeometry x="715" y="70" width="150" height="50" as="geometry"/>
                </mxCell>
                <mxCell id="114" value="" style="endArrow=none;html=1;sketch=1;curveFitting=1;jiggle=2;entryX=0.9;entryY=0;entryDx=0;entryDy=0;entryPerimeter=0;" edge="1" parent="1" target="113">
                    <mxGeometry width="50" height="50" relative="1" as="geometry">
                        <mxPoint x="730" y="130" as="sourcePoint"/>
                        <mxPoint x="825" y="80" as="targetPoint"/>
                    </mxGeometry>
                </mxCell>
                <mxCell id="115" value="" style="endArrow=none;html=1;sketch=1;curveFitting=1;jiggle=2;" edge="1" parent="1">
                    <mxGeometry width="50" height="50" relative="1" as="geometry">
                        <mxPoint x="730" y="60" as="sourcePoint"/>
                        <mxPoint x="840" y="130" as="targetPoint"/>
                    </mxGeometry>
                </mxCell>
                <mxCell id="116" value="" style="ellipse;whiteSpace=wrap;html=1;sketch=1;curveFitting=1;jiggle=2;fillStyle=hachure;fillColor=#FF8000;dashed=1;rotation=1;strokeColor=#FF8000;" vertex="1" parent="1">
                    <mxGeometry x="260" y="-238.17" width="400" height="152.17" as="geometry"/>
                </mxCell>
                <mxCell id="117" value="" style="ellipse;whiteSpace=wrap;html=1;sketch=1;curveFitting=1;jiggle=2;fillStyle=hachure;fillColor=#FF8000;dashed=1;rotation=32;strokeColor=#FF8000;" vertex="1" parent="1">
                    <mxGeometry x="465" y="-180" width="400" height="144.33" as="geometry"/>
                </mxCell>
            </root>
        </mxGraphModel>
    </diagram>
</mxfile>
